<svg width="630" height="562" viewBox="0 0 630 562" fill="none" xmlns="http://www.w3.org/2000/svg">
<g clip-path="url(#clip0)">
<path d="M498.754 332.573C498.754 332.573 500.952 344.983 500.891 354.639" stroke="#C7CAFF" stroke-width="0.7206" stroke-miterlimit="10"/>
<path d="M432.798 487.762C432.798 487.762 455.237 454.423 465.452 430.431C475.598 406.602 542.968 262.882 582.095 220.036" stroke="#A2A7E8" stroke-width="1.153" stroke-miterlimit="10"/>
<path d="M489.895 343.488C485.745 363.023 466.544 375.496 447.009 371.345C427.474 367.195 415.002 347.994 419.152 328.459C422.195 314.133 433.333 303.605 446.761 300.646C451.644 299.57 456.829 299.495 462.039 300.601C481.573 304.751 494.045 323.952 489.895 343.488Z" fill="#A2A7E8"/>
<path d="M597.482 224.44C615.149 224.44 629.471 210.118 629.471 192.451C629.471 174.784 615.149 160.462 597.482 160.462C579.815 160.462 565.493 174.784 565.493 192.451C565.493 210.118 579.815 224.44 597.482 224.44Z" fill="#A2A7E8"/>
<path d="M582.097 220.036L618.18 167.984" stroke="#E3E4FF" stroke-width="0.7206" stroke-miterlimit="10"/>
<path d="M614.796 172.864L623.454 173.939" stroke="#E3E4FF" stroke-width="0.4324" stroke-miterlimit="10"/>
<path d="M610.795 178.643L626.124 178.772" stroke="#E3E4FF" stroke-width="0.4324" stroke-miterlimit="10"/>
<path d="M604.072 188.874L629.329 189.121" stroke="#E3E4FF" stroke-width="0.4324" stroke-miterlimit="10"/>
<path d="M601.805 191.52L629.551 193.434" stroke="#E3E4FF" stroke-width="0.4324" stroke-miterlimit="10"/>
<path d="M598.645 195.684L628.898 197.845" stroke="#E3E4FF" stroke-width="0.4324" stroke-miterlimit="10"/>
<path d="M595.369 200.391L626.908 204.532" stroke="#E3E4FF" stroke-width="0.4324" stroke-miterlimit="10"/>
<path d="M591.863 206.187L623.113 211.688" stroke="#E3E4FF" stroke-width="0.4324" stroke-miterlimit="10"/>
<path d="M585.1 215.271L613.628 220.195" stroke="#E3E4FF" stroke-width="0.4324" stroke-miterlimit="10"/>
<path d="M593.762 202.609L625.729 207.409" stroke="#E3E4FF" stroke-width="0.4324" stroke-miterlimit="10"/>
<path d="M587.813 211.867L618.691 216.436" stroke="#E3E4FF" stroke-width="0.4324" stroke-miterlimit="10"/>
<path d="M583.589 218.363L608.58 222.535" stroke="#E3E4FF" stroke-width="0.4324" stroke-miterlimit="10"/>
<path d="M607.735 183.681L628.192 183.761" stroke="#E3E4FF" stroke-width="0.4324" stroke-miterlimit="10"/>
<path d="M613.743 164.767L614.961 172.419" stroke="#E3E4FF" stroke-width="0.4324" stroke-miterlimit="10"/>
<path d="M609.35 162.696L610.796 178.643" stroke="#E3E4FF" stroke-width="0.4324" stroke-miterlimit="10"/>
<path d="M601.517 160.747L607.307 183.021" stroke="#E3E4FF" stroke-width="0.4324" stroke-miterlimit="10"/>
<path d="M590.93 161.057L601.689 192.065" stroke="#E3E4FF" stroke-width="0.4324" stroke-miterlimit="10"/>
<path d="M598.465 160.384L605.194 186.269" stroke="#E3E4FF" stroke-width="0.4324" stroke-miterlimit="10"/>
<path d="M587.259 162.268L599.304 195.255" stroke="#E3E4FF" stroke-width="0.4324" stroke-miterlimit="10"/>
<path d="M581.008 164.922L596.145 199.418" stroke="#E3E4FF" stroke-width="0.4324" stroke-miterlimit="10"/>
<path d="M578.312 166.908L594.364 202.452" stroke="#E3E4FF" stroke-width="0.4324" stroke-miterlimit="10"/>
<path d="M573.403 171.268L591.979 205.642" stroke="#E3E4FF" stroke-width="0.4324" stroke-miterlimit="10"/>
<path d="M571.234 174.789L589.809 209.163" stroke="#E3E4FF" stroke-width="0.4324" stroke-miterlimit="10"/>
<path d="M566.299 185.968L583.704 217.819" stroke="#E3E4FF" stroke-width="0.4324" stroke-miterlimit="10"/>
<path d="M568.676 178.795L587.813 211.867" stroke="#E3E4FF" stroke-width="0.4324" stroke-miterlimit="10"/>
<path d="M580.771 310.052C600.57 310.052 616.62 294.002 616.62 274.203C616.62 254.404 600.57 238.354 580.771 238.354C560.972 238.354 544.922 254.404 544.922 274.203C544.922 294.002 560.972 310.052 580.771 310.052Z" fill="#E3E4FF"/>
<path d="M548.156 287.962L610.563 254.148" stroke="#C7CAFF" stroke-width="0.7206" stroke-miterlimit="10"/>
<path d="M604.713 257.318L604.576 247.541" stroke="#C7CAFF" stroke-width="0.4324" stroke-miterlimit="10"/>
<path d="M597.784 261.066L599.52 243.974" stroke="#C7CAFF" stroke-width="0.4324" stroke-miterlimit="10"/>
<path d="M585.563 267.301L588.384 239.136" stroke="#C7CAFF" stroke-width="0.4324" stroke-miterlimit="10"/>
<path d="M582.337 269.504L583.607 238.361" stroke="#C7CAFF" stroke-width="0.4324" stroke-miterlimit="10"/>
<path d="M577.313 272.513L578.613 238.547" stroke="#C7CAFF" stroke-width="0.4324" stroke-miterlimit="10"/>
<path d="M571.667 275.584L570.921 239.944" stroke="#C7CAFF" stroke-width="0.4324" stroke-miterlimit="10"/>
<path d="M564.782 278.779L562.484 243.294" stroke="#C7CAFF" stroke-width="0.4324" stroke-miterlimit="10"/>
<path d="M553.833 285.201L551.846 252.817" stroke="#C7CAFF" stroke-width="0.4324" stroke-miterlimit="10"/>
<path d="M569 277.104L567.571 240.905" stroke="#C7CAFF" stroke-width="0.4324" stroke-miterlimit="10"/>
<path d="M557.958 282.595L556.653 247.637" stroke="#C7CAFF" stroke-width="0.4324" stroke-miterlimit="10"/>
<path d="M550.203 286.504L548.62 258.153" stroke="#C7CAFF" stroke-width="0.4324" stroke-miterlimit="10"/>
<path d="M591.798 263.858L594.216 241.059" stroke="#C7CAFF" stroke-width="0.4324" stroke-miterlimit="10"/>
<path d="M613.604 259.483L605.229 257.188" stroke="#C7CAFF" stroke-width="0.4324" stroke-miterlimit="10"/>
<path d="M615.372 264.632L597.784 261.066" stroke="#C7CAFF" stroke-width="0.4324" stroke-miterlimit="10"/>
<path d="M616.582 273.596L592.48 264.416" stroke="#C7CAFF" stroke-width="0.4324" stroke-miterlimit="10"/>
<path d="M614.939 285.352L581.717 269.566" stroke="#C7CAFF" stroke-width="0.4324" stroke-miterlimit="10"/>
<path d="M616.613 277.039L588.604 266.37" stroke="#C7CAFF" stroke-width="0.4324" stroke-miterlimit="10"/>
<path d="M613.14 289.292L577.871 271.83" stroke="#C7CAFF" stroke-width="0.4324" stroke-miterlimit="10"/>
<path d="M609.419 295.93L572.847 274.839" stroke="#C7CAFF" stroke-width="0.4324" stroke-miterlimit="10"/>
<path d="M606.875 298.69L569.248 276.453" stroke="#C7CAFF" stroke-width="0.4324" stroke-miterlimit="10"/>
<path d="M601.416 303.623L565.402 278.717" stroke="#C7CAFF" stroke-width="0.4324" stroke-miterlimit="10"/>
<path d="M597.229 305.608L561.215 280.703" stroke="#C7CAFF" stroke-width="0.4324" stroke-miterlimit="10"/>
<path d="M584.17 309.734L550.824 286.442" stroke="#C7CAFF" stroke-width="0.4324" stroke-miterlimit="10"/>
<path d="M574.43 309.456L547.536 288.024" stroke="#C7CAFF" stroke-width="0.4324" stroke-miterlimit="10"/>
<path d="M592.452 307.966L557.958 282.595" stroke="#C7CAFF" stroke-width="0.4324" stroke-miterlimit="10"/>
<path d="M526.724 450.748C543.609 450.748 557.296 437.061 557.296 420.176C557.296 403.292 543.609 389.604 526.724 389.604C509.84 389.604 496.152 403.292 496.152 420.176C496.152 437.061 509.84 450.748 526.724 450.748Z" fill="#E3E4FF"/>
<path d="M496.64 417.697L557.163 416.78" stroke="#C7CAFF" stroke-width="0.7206" stroke-miterlimit="10"/>
<path d="M551.488 416.866L555.245 409.422" stroke="#C7CAFF" stroke-width="0.4324" stroke-miterlimit="10"/>
<path d="M544.771 416.963L552.832 404.73" stroke="#C7CAFF" stroke-width="0.4324" stroke-miterlimit="10"/>
<path d="M533.072 416.851L546.325 396.676" stroke="#C7CAFF" stroke-width="0.4324" stroke-miterlimit="10"/>
<path d="M529.765 417.242L543.021 394.204" stroke="#C7CAFF" stroke-width="0.4324" stroke-miterlimit="10"/>
<path d="M524.777 417.532L539.172 392.373" stroke="#C7CAFF" stroke-width="0.4324" stroke-miterlimit="10"/>
<path d="M519.298 417.625L532.806 390.391" stroke="#C7CAFF" stroke-width="0.4324" stroke-miterlimit="10"/>
<path d="M512.831 417.321L525.106 389.592" stroke="#C7CAFF" stroke-width="0.4324" stroke-miterlimit="10"/>
<path d="M502.021 417.852L513.305 392.59" stroke="#C7CAFF" stroke-width="0.4324" stroke-miterlimit="10"/>
<path d="M516.682 417.72L529.895 389.795" stroke="#C7CAFF" stroke-width="0.4324" stroke-miterlimit="10"/>
<path d="M506.167 417.511L518.983 390.572" stroke="#C7CAFF" stroke-width="0.4324" stroke-miterlimit="10"/>
<path d="M498.763 417.404L508.76 395.349" stroke="#C7CAFF" stroke-width="0.4324" stroke-miterlimit="10"/>
<path d="M539.145 416.71L549.974 400.432" stroke="#C7CAFF" stroke-width="0.4324" stroke-miterlimit="10"/>
<path d="M557.354 422.013L551.93 416.971" stroke="#C7CAFF" stroke-width="0.4324" stroke-miterlimit="10"/>
<path d="M556.657 426.603L544.771 416.963" stroke="#C7CAFF" stroke-width="0.4324" stroke-miterlimit="10"/>
<path d="M554.032 433.857L539.439 417.401" stroke="#C7CAFF" stroke-width="0.4324" stroke-miterlimit="10"/>
<path d="M548.148 442.094L529.271 417.044" stroke="#C7CAFF" stroke-width="0.4324" stroke-miterlimit="10"/>
<path d="M552.696 436.471L535.737 417.347" stroke="#C7CAFF" stroke-width="0.4324" stroke-miterlimit="10"/>
<path d="M545.233 444.361L525.469 417.237" stroke="#C7CAFF" stroke-width="0.4324" stroke-miterlimit="10"/>
<path d="M539.799 447.909L520.483 417.527" stroke="#C7CAFF" stroke-width="0.4324" stroke-miterlimit="10"/>
<path d="M536.786 448.992L517.126 417.326" stroke="#C7CAFF" stroke-width="0.4324" stroke-miterlimit="10"/>
<path d="M530.712 450.564L513.325 417.519" stroke="#C7CAFF" stroke-width="0.4324" stroke-miterlimit="10"/>
<path d="M526.763 450.412L509.376 417.366" stroke="#C7CAFF" stroke-width="0.4324" stroke-miterlimit="10"/>
<path d="M515.264 448.375L499.256 417.602" stroke="#C7CAFF" stroke-width="0.4324" stroke-miterlimit="10"/>
<path d="M522.222 450.308L506.167 417.511" stroke="#C7CAFF" stroke-width="0.4324" stroke-miterlimit="10"/>
<path d="M486.772 335.28C505.704 335.28 521.051 319.933 521.051 301.001C521.051 282.07 505.704 266.722 486.772 266.722C467.84 266.722 452.493 282.07 452.493 301.001C452.493 319.933 467.84 335.28 486.772 335.28Z" fill="#C7CAFF"/>
<path d="M498.883 332.609L480.874 267.17" stroke="#E3E4FF" stroke-width="0.7206" stroke-miterlimit="10"/>
<path d="M482.562 273.305L489.396 266.924" stroke="#E3E4FF" stroke-width="0.4324" stroke-miterlimit="10"/>
<path d="M484.566 280.566L495.204 268.049" stroke="#E3E4FF" stroke-width="0.4324" stroke-miterlimit="10"/>
<path d="M488.359 293.125L505.917 272.526" stroke="#E3E4FF" stroke-width="0.4324" stroke-miterlimit="10"/>
<path d="M488.977 296.808L509.616 275.307" stroke="#E3E4FF" stroke-width="0.4324" stroke-miterlimit="10"/>
<path d="M490.229 302.267L512.795 278.875" stroke="#E3E4FF" stroke-width="0.4324" stroke-miterlimit="10"/>
<path d="M491.85 308.195L516.926 285.106" stroke="#E3E4FF" stroke-width="0.4324" stroke-miterlimit="10"/>
<path d="M494.205 315.06L520.202 293.144" stroke="#E3E4FF" stroke-width="0.4324" stroke-miterlimit="10"/>
<path d="M497.028 326.865L520.679 306.789" stroke="#E3E4FF" stroke-width="0.4324" stroke-miterlimit="10"/>
<path d="M492.567 311.041L518.481 288.053" stroke="#E3E4FF" stroke-width="0.4324" stroke-miterlimit="10"/>
<path d="M496.093 322.294L521.068 300.042" stroke="#E3E4FF" stroke-width="0.4324" stroke-miterlimit="10"/>
<path d="M498.532 330.231L519.136 312.547" stroke="#E3E4FF" stroke-width="0.4324" stroke-miterlimit="10"/>
<path d="M486.605 286.544L500.728 269.777" stroke="#E3E4FF" stroke-width="0.4324" stroke-miterlimit="10"/>
<path d="M475.182 268.607L482.311 272.863" stroke="#E3E4FF" stroke-width="0.4324" stroke-miterlimit="10"/>
<path d="M470.458 270.797L484.566 280.566" stroke="#E3E4FF" stroke-width="0.4324" stroke-miterlimit="10"/>
<path d="M463.475 275.899L485.769 286.443" stroke="#E3E4FF" stroke-width="0.4324" stroke-miterlimit="10"/>
<path d="M456.454 284.818L489.344 297.277" stroke="#E3E4FF" stroke-width="0.4324" stroke-miterlimit="10"/>
<path d="M461.078 278.158L486.988 290.412" stroke="#E3E4FF" stroke-width="0.4324" stroke-miterlimit="10"/>
<path d="M454.929 288.668L490.33 301.43" stroke="#E3E4FF" stroke-width="0.4324" stroke-miterlimit="10"/>
<path d="M452.814 295.631L491.582 306.888" stroke="#E3E4FF" stroke-width="0.4324" stroke-miterlimit="10"/>
<path d="M452.594 299.214L492.852 310.439" stroke="#E3E4FF" stroke-width="0.4324" stroke-miterlimit="10"/>
<path d="M452.809 306.246L493.838 314.591" stroke="#E3E4FF" stroke-width="0.4324" stroke-miterlimit="10"/>
<path d="M454.212 310.449L495.241 318.794" stroke="#E3E4FF" stroke-width="0.4324" stroke-miterlimit="10"/>
<path d="M460.015 322.189L498.165 329.762" stroke="#E3E4FF" stroke-width="0.4324" stroke-miterlimit="10"/>
<path d="M466.657 328.722L499.251 333.078" stroke="#E3E4FF" stroke-width="0.4324" stroke-miterlimit="10"/>
<path d="M455.749 315.305L496.093 322.294" stroke="#E3E4FF" stroke-width="0.4324" stroke-miterlimit="10"/>
<path d="M541.119 223.266L526.111 176.912C524.039 170.513 527.55 163.643 533.949 161.571C540.347 159.499 547.215 163.009 549.287 169.408L564.295 215.762C566.365 222.155 562.858 229.028 556.46 231.099C550.061 233.172 543.189 229.659 541.119 223.266Z" fill="#A2A7E8"/>
<path d="M533.365 161.625C533.365 161.625 557.189 207.841 560.74 244.466" stroke="#E3E4FF" stroke-width="0.7206" stroke-miterlimit="10"/>
<path d="M539.916 361.866L604.992 347.949C613.976 346.028 619.702 337.183 617.781 328.199C615.86 319.217 607.018 313.491 598.034 315.413L532.958 329.33C523.983 331.249 518.25 340.092 520.171 349.074C522.092 358.057 530.941 363.785 539.916 361.866Z" fill="#C7CAFF"/>
<path d="M446.651 300.745C446.651 300.745 471.027 374.742 472.376 412.565" stroke="#C7CAFF" stroke-width="0.7206" stroke-miterlimit="10"/>
<path d="M543.838 228.984C542.337 246.227 527.142 258.988 509.899 257.487C492.656 255.986 479.895 240.791 481.396 223.548C482.497 210.903 490.962 200.668 502.199 196.701C506.285 195.258 510.737 194.645 515.336 195.045C532.578 196.545 545.339 211.741 543.838 228.984Z" fill="#E3E4FF"/>
<path d="M502.794 197.34C502.794 197.34 530.918 257.865 536.084 290.256" stroke="#C7CAFF" stroke-width="0.7206" stroke-miterlimit="10"/>
<path d="M496.757 417.795L508.012 444.318" stroke="#C7CAFF" stroke-width="0.4324" stroke-miterlimit="10"/>
<path d="M467.375 424.918C467.375 424.918 479.138 420.627 496.757 417.795" stroke="#C7CAFF" stroke-width="0.7206" stroke-miterlimit="10"/>
<path d="M581.767 220.251L565.597 194.634" stroke="#E3E4FF" stroke-width="0.4324" stroke-miterlimit="10"/>
<path d="M580.063 332.683L595.052 350.471" stroke="#A2A7E8" stroke-width="0.4324" stroke-miterlimit="10"/>
<path d="M588.046 331.25L601.401 348.692" stroke="#A2A7E8" stroke-width="0.4324" stroke-miterlimit="10"/>
<path d="M572.721 334.363L590.681 350.965" stroke="#A2A7E8" stroke-width="0.4324" stroke-miterlimit="10"/>
<path d="M519.918 346.738L529.734 360.767" stroke="#A2A7E8" stroke-width="0.4324" stroke-miterlimit="10"/>
<path d="M593.716 330.576L610.489 346.073" stroke="#A2A7E8" stroke-width="0.4324" stroke-miterlimit="10"/>
<path d="M558.774 336.508L578.038 354.251" stroke="#A2A7E8" stroke-width="0.4324" stroke-miterlimit="10"/>
<path d="M555.277 336.903L573.165 355.775" stroke="#A2A7E8" stroke-width="0.4324" stroke-miterlimit="10"/>
<path d="M549.918 338.039L567.534 356.853" stroke="#A2A7E8" stroke-width="0.4324" stroke-miterlimit="10"/>
<path d="M544.285 339.118L560.094 358.401" stroke="#A2A7E8" stroke-width="0.4324" stroke-miterlimit="10"/>
<path d="M536.731 341.21L551.667 360.592" stroke="#A2A7E8" stroke-width="0.4324" stroke-miterlimit="10"/>
<path d="M525.915 344.761L539.8 362.905" stroke="#A2A7E8" stroke-width="0.4324" stroke-miterlimit="10"/>
<path d="M541.218 340.172L557.028 359.456" stroke="#A2A7E8" stroke-width="0.4324" stroke-miterlimit="10"/>
<path d="M529.78 343.146L544.888 361.711" stroke="#A2A7E8" stroke-width="0.4324" stroke-miterlimit="10"/>
<path d="M521.896 345.452L535.818 362.912" stroke="#A2A7E8" stroke-width="0.4324" stroke-miterlimit="10"/>
<path d="M565.61 335.117L584.602 352.802" stroke="#A2A7E8" stroke-width="0.4324" stroke-miterlimit="10"/>
<path d="M587.649 317.049L580.516 332.451" stroke="#A2A7E8" stroke-width="0.4324" stroke-miterlimit="10"/>
<path d="M592.291 316.614L585.645 332.403" stroke="#A2A7E8" stroke-width="0.4324" stroke-miterlimit="10"/>
<path d="M600.604 314.967L591.879 331.168" stroke="#A2A7E8" stroke-width="0.4324" stroke-miterlimit="10"/>
<path d="M582.231 318.458L572.721 334.363" stroke="#A2A7E8" stroke-width="0.4324" stroke-miterlimit="10"/>
<path d="M575.123 319.791L566.797 335.303" stroke="#A2A7E8" stroke-width="0.4324" stroke-miterlimit="10"/>
<path d="M562.324 322.475L556.152 336.804" stroke="#A2A7E8" stroke-width="0.4324" stroke-miterlimit="10"/>
<path d="M570.967 320.614L562.977 335.41" stroke="#A2A7E8" stroke-width="0.4324" stroke-miterlimit="10"/>
<path d="M606.919 316.024L596.908 330.96" stroke="#A2A7E8" stroke-width="0.4324" stroke-miterlimit="10"/>
<path d="M558.169 323.299L551.842 338.164" stroke="#A2A7E8" stroke-width="0.4324" stroke-miterlimit="10"/>
<path d="M551.274 324.962L546.313 339.264" stroke="#A2A7E8" stroke-width="0.4324" stroke-miterlimit="10"/>
<path d="M527.038 330.619L522.077 344.922" stroke="#A2A7E8" stroke-width="0.4324" stroke-miterlimit="10"/>
<path d="M547.39 325.843L542.86 339.668" stroke="#A2A7E8" stroke-width="0.4324" stroke-miterlimit="10"/>
<path d="M542.087 326.707L538.607 340.755" stroke="#A2A7E8" stroke-width="0.4324" stroke-miterlimit="10"/>
<path d="M530.708 329.408L527.228 343.456" stroke="#A2A7E8" stroke-width="0.4324" stroke-miterlimit="10"/>
<path d="M537.816 328.075L534.373 341.846" stroke="#A2A7E8" stroke-width="0.4324" stroke-miterlimit="10"/>
<path d="M534.019 328.548L530.758 342.927" stroke="#A2A7E8" stroke-width="0.4324" stroke-miterlimit="10"/>
<path d="M618.117 328.926C618.117 328.926 547.181 332.321 501.438 353.142" stroke="#A2A7E8" stroke-width="0.7206" stroke-miterlimit="10"/>
<path d="M601.698 329.96L613.301 343.542" stroke="#A2A7E8" stroke-width="0.4324" stroke-miterlimit="10"/>
<path d="M604.504 329.944L610.156 317.466" stroke="#A2A7E8" stroke-width="0.4324" stroke-miterlimit="10"/>
<path d="M607.351 329.693L615.859 339.536" stroke="#A2A7E8" stroke-width="0.4324" stroke-miterlimit="10"/>
<path d="M610.15 329.464L613.926 320.601" stroke="#A2A7E8" stroke-width="0.4324" stroke-miterlimit="10"/>
<path d="M612.075 329.316L617.944 334.402" stroke="#A2A7E8" stroke-width="0.4324" stroke-miterlimit="10"/>
<path d="M614.801 329.125L616.558 324.573" stroke="#A2A7E8" stroke-width="0.4324" stroke-miterlimit="10"/>
<path d="M530.42 299.539C530.42 299.539 541.232 291.676 548.176 287.992" stroke="#C7CAFF" stroke-width="0.7206" stroke-miterlimit="10"/>
<path d="M226.678 536.387C351.869 536.387 453.356 434.9 453.356 309.709C453.356 184.518 351.869 83.0312 226.678 83.0312C101.487 83.0312 0 184.518 0 309.709C0 434.9 101.487 536.387 226.678 536.387Z" fill="url(#paint0_linear)"/>
<path d="M402.791 554.391C402.791 558.141 386.938 561.182 367.383 561.182C347.828 561.182 331.975 558.142 331.975 554.391H402.791Z" fill="url(#paint1_radial)"/>
<path d="M549.657 537.404C549.657 542.696 482.947 546.985 400.657 546.985C318.367 546.985 251.656 542.695 251.656 537.404H549.657Z" fill="url(#paint2_radial)"/>
<path d="M134.873 536.658H427.632C468.048 536.658 500.819 503.874 500.819 463.458C500.819 423.049 468.049 390.285 427.632 390.285H134.873C94.4972 390.285 61.7002 423.049 61.7002 463.458C61.7002 503.874 94.4972 536.658 134.873 536.658Z" fill="url(#paint3_linear)"/>
<path d="M443.561 166.06C434.716 165.709 432.665 130.164 432.955 122.857C433.245 115.55 438.07 110.301 445.761 110.607C453.452 110.912 457.846 116.527 457.556 123.834C457.266 131.14 452.406 166.411 443.561 166.06Z" fill="#D5D6F7"/>
<path d="M526.003 63.7722C517.618 60.9352 502.985 93.3932 500.641 100.32C498.297 107.247 500.925 113.875 508.216 116.341C515.507 118.808 521.619 115.137 523.963 108.21C526.306 101.284 534.387 66.6092 526.003 63.7722Z" fill="#D5D6F7"/>
<path d="M487.857 158.314C493.292 158.314 497.699 153.908 497.699 148.472C497.699 143.037 493.292 138.63 487.857 138.63C482.421 138.63 478.015 143.037 478.015 148.472C478.015 153.908 482.421 158.314 487.857 158.314Z" fill="url(#paint4_linear)"/>
<path d="M433.992 63.7473C437.206 62.9003 439.124 59.6073 438.277 56.3933L428.761 20.3013C427.914 17.0873 424.621 15.1693 421.408 16.0163C418.194 16.8633 416.276 20.1563 417.123 23.3693L426.638 59.4623C427.486 62.6763 430.778 64.5943 433.992 63.7473Z" fill="#C7CAFF"/>
<path d="M493.976 47.9322C497.19 47.0852 499.108 43.7922 498.261 40.5782L488.746 4.48523C487.899 1.27123 484.607 -0.646775 481.393 0.200225C478.179 1.04722 476.261 4.34023 477.108 7.55323L486.623 43.6462C487.47 46.8612 490.762 48.7802 493.976 47.9322Z" fill="#C7CAFF"/>
<path d="M452.666 12.8523C472.633 7.58827 493.088 19.5073 498.352 39.4753L502.339 54.5983C507.603 74.5663 491.292 78.3643 471.325 83.6283C451.357 88.8923 435.294 93.6303 430.03 73.6623L426.043 58.5393C420.779 38.5703 432.698 18.1163 452.666 12.8523Z" fill="url(#paint5_radial)"/>
<path d="M424.073 67.5632C429.853 89.4852 451.653 100.082 473.575 94.3022C495.497 88.5222 509.24 68.5552 503.461 46.6332C501.012 37.3422 493.416 39.2772 494.506 43.4092C496.266 50.0852 497.867 57.8552 496.377 60.3402C493.724 64.7662 482.463 70.4302 468.269 74.1722C454.199 77.8812 441.623 78.4212 437.61 77.1262C435.231 76.3582 432.631 65.1562 431.655 61.4522C430.325 56.4112 421.774 58.8442 424.073 67.5632Z" fill="url(#paint6_linear)"/>
<path d="M473.367 53.3663C474.977 52.9423 475.938 51.2933 475.513 49.6833L471.873 35.8753C471.449 34.2653 469.8 33.3053 468.19 33.7293C466.58 34.1533 465.619 35.8023 466.044 37.4123L469.684 51.2203C470.109 52.8293 471.758 53.7903 473.367 53.3663Z" fill="white"/>
<path d="M473.607 54.2772C471.498 54.8332 469.329 53.5692 468.773 51.4602L465.133 37.6522C464.577 35.5432 465.841 33.3742 467.95 32.8182C470.059 32.2622 472.228 33.5262 472.784 35.6352L476.424 49.4432C476.98 51.5522 475.717 53.7212 473.607 54.2772ZM468.43 34.6402C467.325 34.9312 466.663 36.0672 466.955 37.1722L470.595 50.9802C470.886 52.0852 472.022 52.7472 473.127 52.4562C474.232 52.1652 474.894 51.0292 474.602 49.9242L470.962 36.1162C470.671 35.0112 469.535 34.3492 468.43 34.6402Z" fill="white"/>
<path d="M454.292 58.3952C455.902 57.9712 456.863 56.3222 456.438 54.7122L452.798 40.9042C452.374 39.2942 450.725 38.3342 449.115 38.7582C447.505 39.1822 446.544 40.8312 446.969 42.4412L450.609 56.2492C451.034 57.8582 452.682 58.8192 454.292 58.3952Z" fill="white"/>
<path d="M454.533 59.3062C452.424 59.8622 450.255 58.5982 449.699 56.4892L446.059 42.6812C445.503 40.5722 446.767 38.4032 448.876 37.8472C450.985 37.2912 453.154 38.5552 453.71 40.6642L457.35 54.4722C457.905 56.5812 456.642 58.7492 454.533 59.3062ZM449.355 39.6692C448.25 39.9602 447.588 41.0962 447.88 42.2012L451.52 56.0092C451.811 57.1142 452.947 57.7762 454.052 57.4852C455.157 57.1942 455.819 56.0582 455.527 54.9532L451.887 41.1452C451.596 40.0402 450.461 39.3782 449.355 39.6692Z" fill="white"/>
<path d="M498.599 144.454C492.057 147.86 483.298 149.966 476.529 150.273C469.152 150.437 463.703 144.521 464.499 139.311C465.294 134.101 470.106 131.038 475.155 130.923C481.507 130.778 484.663 129.949 490.256 126.94C494.702 124.548 500.402 124.844 503.663 128.985C506.922 133.125 505.099 140.956 498.599 144.454Z" fill="url(#paint7_linear)"/>
<path d="M511.611 114.096C516.501 114.096 520.466 110.132 520.466 105.241C520.466 100.351 516.501 96.3862 511.611 96.3862C506.72 96.3862 502.756 100.351 502.756 105.241C502.756 110.132 506.72 114.096 511.611 114.096Z" fill="#BABDF7"/>
<path d="M445.877 131.427C450.768 131.427 454.732 127.463 454.732 122.572C454.732 117.682 450.768 113.717 445.877 113.717C440.987 113.717 437.022 117.682 437.022 122.572C437.022 127.463 440.987 131.427 445.877 131.427Z" fill="#BABDF7"/>
<path d="M449.647 129.13C446.976 126.583 445.41 123.017 445.613 119.332C446.017 111.988 451.251 105.301 459.517 103.122L490.156 95.0442C498.421 92.8652 506.273 96.1022 510.244 102.292C512.237 105.398 512.633 109.273 511.565 112.805C503.458 139.622 469.92 148.464 449.647 129.13Z" fill="url(#paint8_linear)"/>
<path d="M482.487 128.102C493.689 125.149 497.125 116.774 495.184 112.295C494.01 109.586 490.556 108.481 486.008 109.869C483.176 110.733 480.906 112.486 478.534 113.111C476.162 113.736 473.323 113.33 470.433 113.975C465.793 115.009 463.332 117.673 463.646 120.609C464.166 125.463 471.285 131.055 482.487 128.102Z" fill="url(#paint9_linear)"/>
<path d="M391.705 421.964C389.524 446.533 386.012 492.602 380.627 515.878H380.492L374.837 515.801H374.818L363.663 515.665H363.624C363.624 515.665 362.948 507.366 362.119 498.45C362.004 497.138 361.888 495.806 361.752 494.513C361.752 494.494 361.752 494.494 361.752 494.474C361.694 493.914 361.636 493.355 361.578 492.796C361.347 490.461 361.115 488.202 360.883 486.156C360.844 485.751 360.786 485.346 360.748 484.96C360.593 483.782 360.458 482.682 360.323 481.698C360.284 481.408 360.246 481.118 360.207 480.81C360.168 480.501 360.13 480.192 360.072 479.883C359.898 478.803 359.686 477.664 359.454 476.448C358.701 472.356 357.659 467.628 356.636 462.918C356.463 462.108 356.289 461.317 356.115 460.525C355.845 459.29 355.594 458.074 355.343 456.877C355.266 456.472 355.188 456.085 355.112 455.7V455.68C355.035 455.295 354.957 454.908 354.861 454.542C354.784 454.156 354.706 453.77 354.63 453.404C354.475 452.651 354.34 451.898 354.186 451.185C354.051 450.471 353.916 449.756 353.801 449.062C353.704 448.425 353.588 447.808 353.492 447.189C353.415 446.822 353.376 446.476 353.319 446.147C353.28 445.954 353.261 445.742 353.242 445.549C353.222 445.414 353.203 445.26 353.184 445.106C353.029 444.064 352.894 442.963 352.759 441.805C352.701 441.207 352.624 440.589 352.566 439.972C352.508 439.354 352.469 438.698 352.411 438.061C352.18 435.186 352.083 432.155 352.18 429.107C352.18 428.585 352.219 428.084 352.238 427.562C352.295 426.269 352.392 424.995 352.547 423.722C352.605 423.374 352.644 423.008 352.682 422.699C352.817 421.657 352.971 420.634 353.184 419.631C353.319 418.917 353.473 418.202 353.666 417.508C353.724 417.296 353.781 417.083 353.839 416.871C353.878 416.659 353.936 416.466 354.013 416.254L354.36 415.153C354.476 414.786 354.611 414.42 354.746 414.092C354.959 413.475 355.21 412.876 355.48 412.298C355.519 412.221 355.538 412.143 355.577 412.085C355.616 412.008 355.634 411.93 355.673 411.873C355.808 411.584 355.963 411.313 356.117 411.043C356.368 410.561 356.638 410.098 356.928 409.654C357.217 409.21 357.526 408.766 357.835 408.341C358.568 407.376 357.449 407.396 354.573 407.859C354.303 407.898 354.033 407.936 353.724 407.994C353.608 408.014 353.473 408.033 353.319 408.071C353.184 408.091 353.049 408.11 352.894 408.148C352.006 408.284 350.983 408.476 349.844 408.669C349.69 408.708 349.516 408.727 349.343 408.766C349.034 408.823 348.725 408.881 348.417 408.921C348.185 408.959 347.953 408.997 347.703 409.036C346.95 409.172 346.159 409.306 345.329 409.422C344.403 409.577 343.438 409.731 342.395 409.866C341.565 410.001 340.735 410.117 339.847 410.233C338.863 410.369 337.82 410.503 336.759 410.638C336.508 410.658 336.257 410.696 335.987 410.715C335.64 410.754 335.292 410.792 334.925 410.831C334.443 410.888 333.941 410.947 333.439 411.004C331.142 411.256 328.691 411.468 326.086 411.641C325.43 411.698 324.774 411.738 324.117 411.776C321.435 411.95 318.597 412.066 315.625 412.144C306.786 412.356 292.176 410.406 281.811 410.04C281.155 410.021 280.19 410.021 278.993 410.021C273.743 408.535 268.61 406.759 263.611 404.714C263.071 404.502 262.549 404.27 262.009 404.057C259.268 402.9 256.566 401.684 253.922 400.39C253.787 400.313 253.632 400.255 253.497 400.178C248.074 397.515 242.805 394.523 237.768 391.242C237.189 390.875 236.61 390.489 236.031 390.084C229.199 385.529 222.733 380.434 216.731 374.837C216.055 374.239 215.38 373.582 214.704 372.946C212.272 370.611 209.917 368.198 207.659 365.727C207.64 362.581 207.659 359.358 207.698 356.135C213.276 355.209 218.448 354.533 223.273 354.069C223.524 354.05 223.794 354.012 224.045 353.992C227.48 353.684 230.742 353.471 233.85 353.356C242.322 353.027 249.618 353.356 256.219 353.916C260.523 354.282 264.518 354.745 268.339 355.228C272.045 355.692 275.596 356.154 279.07 356.521C282.969 356.926 286.809 357.197 290.727 357.197C302.732 357.236 314.813 358.239 327.146 360.208C338.282 361.965 349.611 364.532 361.326 367.812C361.481 367.851 361.635 367.909 361.789 367.947C367.444 369.51 381.34 373.39 384.814 380.203C385.663 381.863 386.474 384.063 387.207 386.65C388.346 390.548 389.33 395.258 390.102 400.044C390.72 403.884 391.202 407.783 391.492 411.335C391.84 415.556 391.936 419.32 391.705 421.964Z" fill="#DCDEFF"/>
<path d="M374.817 515.801L363.662 515.665H363.623C363.623 515.665 362.947 507.366 362.118 498.45C362.003 497.157 361.887 495.864 361.751 494.59V494.513C361.693 493.934 361.635 493.375 361.577 492.796C361.346 490.461 361.114 488.202 360.882 486.156C360.843 485.751 360.785 485.346 360.747 484.96C360.612 483.782 360.477 482.682 360.342 481.698C360.303 481.408 360.265 481.118 360.207 480.81C360.168 480.501 360.13 480.192 360.072 479.883C359.898 478.803 359.686 477.664 359.454 476.448C358.701 472.356 357.659 467.628 356.636 462.918C356.463 462.108 356.289 461.317 356.115 460.525C355.845 459.29 355.594 458.074 355.343 456.877C355.17 456.085 355.015 455.314 354.86 454.542C354.783 454.156 354.705 453.77 354.629 453.404C354.474 452.651 354.339 451.898 354.185 451.185C354.05 450.471 353.915 449.756 353.8 449.062C353.703 448.425 353.587 447.808 353.491 447.189C353.414 446.822 353.375 446.476 353.318 446.147C353.279 445.954 353.26 445.742 353.241 445.549C353.221 445.414 353.202 445.26 353.183 445.106C353.028 444.064 352.893 442.963 352.758 441.805C352.7 441.207 352.623 440.589 352.565 439.972C352.507 439.354 352.468 438.698 352.41 438.061C352.179 435.186 352.082 432.155 352.179 429.107C352.179 428.585 352.218 428.084 352.237 427.562C352.294 426.269 352.391 424.995 352.546 423.722C352.604 423.374 352.643 423.008 352.681 422.699C352.816 421.657 352.97 420.634 353.183 419.631C353.318 418.917 353.472 418.202 353.665 417.508C353.723 417.296 353.78 417.083 353.838 416.871C353.877 416.659 353.935 416.466 354.012 416.254L354.359 415.153C354.475 414.786 354.61 414.42 354.745 414.092C354.958 413.475 355.209 412.876 355.479 412.298H355.498C355.517 412.221 355.556 412.143 355.575 412.085C355.614 412.008 355.632 411.93 355.671 411.873C355.806 411.584 355.961 411.313 356.115 411.043C356.366 410.561 356.636 410.098 356.926 409.654C357.215 409.21 357.524 408.766 357.833 408.341C358.566 407.376 357.447 407.396 354.571 407.859C354.301 407.898 354.031 407.936 353.722 407.994C353.606 408.014 353.471 408.033 353.317 408.071C353.182 408.091 353.047 408.11 352.892 408.148C352.004 408.284 350.981 408.476 349.842 408.669C349.379 408.746 348.916 408.824 348.414 408.921C348.182 408.959 347.95 408.997 347.7 409.036C346.947 409.172 346.156 409.306 345.326 409.422C344.4 409.577 343.435 409.731 342.392 409.866C341.562 410.001 340.732 410.117 339.844 410.233C338.86 410.369 337.817 410.503 336.756 410.638C336.505 410.658 336.235 410.696 335.984 410.734C335.154 410.811 334.305 410.908 333.436 411.004C331.139 411.256 328.688 411.468 326.083 411.641C325.427 411.698 324.771 411.738 324.114 411.776C321.432 411.95 318.594 412.066 315.622 412.144C306.783 412.356 292.173 410.406 281.808 410.04C281.152 410.021 280.187 410.021 278.99 410.021C273.74 408.535 268.607 406.759 263.608 404.714C263.068 404.502 262.546 404.27 262.006 404.057C262.778 402.957 263.723 401.992 264.958 401.587C266.657 401.008 268.471 401.587 270.208 401.954C276.094 403.208 282.174 401.858 288.253 401.259C289.585 401.124 290.936 401.008 292.268 400.989C299.081 400.873 305.759 402.591 312.514 403.267C318.188 403.846 323.882 403.711 329.575 403.575C338.743 403.363 347.93 403.151 357.097 402.939C357.116 402.939 357.116 402.939 357.136 402.939C359.413 402.881 362.057 403.055 363.215 404.945C364.199 406.547 363.62 408.593 363.041 410.407C363.022 410.446 363.022 410.504 363.002 410.543C362.134 413.225 361.381 415.966 360.763 418.707C360.551 419.633 360.358 420.56 360.184 421.486C357.076 437.138 357.656 453.427 360.589 469.022C361.091 471.685 361.747 474.368 362.519 477.051C366.186 489.847 372.246 502.933 374.775 515.574C374.778 515.646 374.798 515.724 374.817 515.801Z" fill="#CED0FF"/>
<path d="M355.616 544.054C362.96 545.34 370.573 545.849 378.182 546.377C379.457 546.463 380.756 546.529 382.047 546.153C383.588 545.71 384.947 544.665 386.327 543.773C389.783 541.516 393.589 539.964 397.399 539.258C395.166 537.716 392.957 536.156 390.906 534.428C385.386 529.807 380.008 529.165 380.498 515.773L363.66 515.177C363.66 515.177 363.858 526.1 360.59 532.706C359.704 534.5 358.367 536.084 357.376 537.835C356.266 539.831 355.656 542 355.616 544.054Z" fill="url(#paint10_linear)"/>
<path d="M355.616 544.054C355.607 544.88 355.678 545.69 355.836 546.464C356.249 548.324 357.233 550.07 358.982 550.826C360.254 551.391 361.821 551.391 363.327 551.408C374.205 551.459 382.693 552.27 393.087 553.975C397.697 554.739 402.834 555.56 407.423 552.942C408.751 552.184 410.105 550.926 410.13 549.562C410.171 548.449 409.338 547.669 408.529 547.024C405.004 544.205 401.147 541.796 397.398 539.257C393.588 539.963 389.783 541.515 386.326 543.772C384.946 544.664 383.587 545.709 382.046 546.152C380.755 546.528 397.457 547.12 396.182 547.034C388.575 546.507 362.96 545.34 355.616 544.054Z" fill="url(#paint11_linear)"/>
<path d="M362.523 477.047C362.464 482.933 362.253 488.8 361.751 494.474V494.513V494.59C361.404 498.72 360.902 502.735 360.246 506.576C359.454 511.072 358.837 515.242 358.452 519.005V519.064L358.432 519.219L341.661 520.068H341.584C341.584 520.068 340.059 504.203 337.319 494.032C334.925 485 328.614 469.232 325.912 459.678C323.113 449.815 316.918 429.435 322.998 419.977C323.365 419.417 323.75 418.915 324.195 418.433C325.314 417.236 320.74 416.522 314.274 415.847C314.004 415.809 313.715 415.769 313.425 415.75C312.981 415.692 312.518 415.654 312.054 415.596C310.008 415.403 307.808 415.191 305.588 414.959C302.095 414.611 298.505 414.226 295.244 413.743L269.138 410.889C263.889 409.403 218.078 406.379 207.653 390.283C197.763 375.013 204.592 352.581 204.747 352.04L204.785 351.943C213.683 351.172 223.505 350.785 233.388 350.921C241.223 351.036 249.117 351.461 256.587 352.311C261.74 352.871 266.681 353.642 271.312 354.626C273.609 355.09 275.829 355.63 277.951 356.209C278.337 356.306 278.704 356.421 279.07 356.517C283.432 357.733 287.273 358.814 290.747 359.818C299.645 362.386 306.187 364.508 313.02 367.307C319.389 369.912 326.009 373.097 335.041 377.748C340.253 380.392 353.049 386.936 355.114 394.346C355.191 394.635 355.268 394.925 355.365 395.214C355.384 395.31 355.403 395.407 355.423 395.484C355.809 396.932 356.194 398.515 356.562 400.251C356.754 401.12 356.947 402.008 357.14 402.934C357.488 404.652 357.835 406.447 358.182 408.28C358.375 409.341 358.568 410.441 358.761 411.522C359.166 413.973 359.553 416.462 359.842 418.837C359.977 419.745 360.093 420.612 360.19 421.482C360.634 425.032 360.942 428.315 361.039 430.958C361.232 435.957 361.521 441.554 361.792 447.555V447.575C362.214 456.839 362.619 466.972 362.523 477.047Z" fill="#DCDEFF"/>
<path d="M287.747 412.923C292.263 413.431 295.186 413.737 295.242 413.742L287.747 412.923ZM234.788 404.738C240.521 406.31 245.908 407.3 249.796 407.904C245.043 407.087 239.868 406.058 234.788 404.738ZM204.383 353.356C203.043 357.679 199.085 372.863 204.96 385.722C205.489 386.881 206.137 387.983 206.888 389.031C199.326 375.903 203.108 358.279 204.383 353.356Z" fill="#EEEFFF"/>
<path d="M210.041 351.541L204.779 352.154C204.779 352.154 204.623 352.58 204.382 353.356C203.107 358.279 199.325 375.903 206.886 389.031C212.606 397.021 224.277 401.857 234.787 404.738C239.867 406.058 245.042 407.087 249.795 407.904C250.076 407.948 250.348 407.989 250.613 408.029H250.62C262.322 409.961 278.427 411.875 287.746 412.924L295.241 413.743C295.242 413.743 295.242 413.743 295.242 413.743C298.503 414.226 302.094 414.611 305.586 414.959C307.806 415.19 310.006 415.403 312.052 415.596C312.516 415.654 312.979 415.692 313.423 415.75C313.713 415.769 314.002 415.808 314.272 415.847C320.081 416.453 324.363 417.091 324.361 418.083C324.361 418.195 324.306 418.312 324.192 418.433C323.748 418.915 323.362 419.417 322.995 419.977C321.119 422.895 320.412 426.854 320.413 431.223C320.416 441.011 323.974 452.858 325.909 459.678C328.61 469.232 334.922 485 337.316 494.032C340.056 504.203 341.581 520.068 341.581 520.068H341.658L358.429 519.219L358.449 519.064V519.005C358.834 515.242 359.452 511.073 360.243 506.576C353.353 488.028 339.263 475.677 334.497 456.492C332.74 449.448 331.814 442.21 330.888 435.011C330.463 431.692 331.061 425.806 332.315 420.536C332.74 418.76 333.223 417.043 333.782 415.519C334.438 413.704 335.172 412.16 335.963 411.079C336.04 410.963 336.04 410.867 335.982 410.731V410.712C335.287 409.36 326.757 407.393 324.537 406.891C323.766 406.717 323.051 406.543 322.279 406.389H322.202C322.028 406.351 321.874 406.312 321.72 406.293C310.526 403.919 299.409 402.26 288.253 401.256C281.228 400.619 276.797 400.313 269.714 400.177C249.343 399.833 239.717 398.889 226.674 388.555C212.37 377.22 210.041 351.541 210.041 351.541Z" fill="#CED0FF"/>
<path d="M335.401 548.165C342.813 548.979 350.443 548.999 358.069 549.039C359.347 549.043 360.648 549.026 361.912 548.568C363.421 548.027 364.711 546.897 366.031 545.919C369.336 543.445 373.034 541.653 376.791 540.704C374.464 539.308 372.16 537.893 370.002 536.299C364.197 532.041 358.79 531.745 358.421 518.348L341.579 518.831C341.579 518.831 342.476 529.719 339.638 536.521C338.869 538.368 337.636 540.035 336.759 541.845C335.78 543.908 335.309 546.112 335.401 548.165Z" fill="url(#paint12_linear)"/>
<path d="M335.401 548.165C335.445 548.99 335.567 549.794 335.775 550.556C336.306 552.386 337.4 554.066 339.194 554.708C340.5 555.191 342.064 555.091 343.567 555.011C354.426 554.366 362.948 554.631 373.43 555.668C378.079 556.136 383.258 556.626 387.671 553.72C388.948 552.878 390.218 551.536 390.156 550.174C390.126 549.06 389.244 548.335 388.396 547.744C384.698 545.156 380.694 542.999 376.791 540.705C373.034 541.654 369.336 543.446 366.031 545.92C364.711 546.898 363.422 548.028 361.912 548.569C360.648 549.027 377.353 548.548 376.075 548.544C368.449 548.503 342.813 548.978 335.401 548.165Z" fill="url(#paint13_linear)"/>
<path d="M289.407 247.946C293.911 262.506 295.251 277.192 296.769 292.319C305.601 312.12 318.759 327.079 334.314 341.838C339.306 350.168 334.817 353.814 327.164 349.835C302.742 337.136 286.242 322.428 275.297 297.481C273.154 292.596 273.945 292.862 271.906 287.127C268.565 277.729 264.006 265.83 261.385 254.779C259.071 245.022 258.669 233.436 258.687 223.128C269.259 230.945 278.835 240.077 289.407 247.946Z" fill="url(#paint14_linear)"/>
<path d="M364.447 347.728C362.683 349.534 359.883 348.778 357.941 348.105C354.02 346.748 350.75 345.596 346.752 344.982C346.481 344.94 346.173 344.946 345.866 345.011C345.559 345.077 345.611 345.013 345.183 345.205C344.755 345.399 344.067 346.001 344.123 346.683C346.615 347.192 348.984 347.601 351.493 348.39C352.044 348.563 353.225 348.776 353.139 349.768C353.053 350.758 352.084 351.053 350.964 351.029C347.144 350.948 344.499 350.888 340.066 351.377C338.723 351.525 333.981 352.716 331.892 351.883C331.638 351.782 331.043 351.796 330.764 351.721C325.758 350.385 324.389 346.697 326.416 342.241C328.443 337.786 332.039 336.336 336.281 334.532C340.523 332.729 345.245 331.52 349.869 330.78C350.973 330.603 352.135 330.571 353.186 330.969C354.238 331.366 354.995 332.141 355.761 332.928C357.891 335.114 360.005 337.46 362.007 339.72C363.093 340.946 364.215 342.06 364.842 343.521C365.469 344.982 365.584 346.563 364.447 347.728Z" fill="url(#paint15_linear)"/>
<path d="M295.728 275.939C288.477 277.949 284.341 283.357 276.994 285.167C274.442 285.795 271.826 286.406 269.227 286.932C266.165 277.793 263.029 267.165 260.664 258.099C258.3 249.034 255.841 238.635 257.211 230.217C260.061 212.704 256.849 229.492 273.092 223.547C274.07 223.189 275.131 223.325 276.06 222.987C273.902 237.933 284.133 222.948 288.004 238.356C291.074 250.574 292.664 262.982 295.728 275.939Z" fill="url(#paint16_linear)"/>
<path d="M353.137 349.768C353.051 350.758 352.082 351.053 350.962 351.029C347.144 350.95 344.494 350.884 340.065 351.378C338.723 351.528 333.965 352.702 331.9 351.892C331.648 351.794 330.906 351.923 330.804 351.766C330.703 351.609 330.769 351.739 330.775 351.712C332.077 346.403 340.792 346.125 345.24 345.176C344.557 345.496 344.2 345.935 344.111 346.687C346.625 347.186 348.977 347.602 351.491 348.389C352.044 348.563 353.223 348.777 353.137 349.768Z" fill="url(#paint17_linear)"/>
<path d="M289.107 245.629C283.276 221.302 278.783 195.615 284.984 171.446C287.169 162.934 276.946 157.238 280.474 155.978C294.019 151.139 308.542 166.908 306.958 140.738C305.78 121.285 290.982 109.25 275.139 109.082C258.553 108.905 249.438 107.6 238.73 122.787C228.022 137.974 224.103 151.9 226.84 174.788C229.138 194.01 205.02 218.516 202.494 244.465C198.827 282.129 220.665 287.472 226.473 297.163C229.799 302.712 235.796 318.716 247.136 314.166C271.289 304.478 281.553 269.262 289.107 245.629Z" fill="#231F20"/>
<path d="M257.456 206.879C250.93 206.879 242.481 208.276 239.974 209.831C229.485 216.338 227.914 221.946 222.348 230.987C221.235 232.793 220.876 233.71 220.069 235.874C218.238 240.794 217.181 241.924 215.654 247.995C212.405 260.91 210.985 263.511 207.737 283.496C207.444 285.298 205.881 299.191 204.778 314.178C205.878 299.345 207.43 285.641 207.723 283.848C210.984 263.886 212.402 261.23 215.652 248.361C217.179 242.312 218.23 241.06 220.065 236.283C220.873 234.183 221.229 232.774 222.391 231.269C227.95 224.072 230.733 211.975 241.371 211.975C241.856 211.975 242.358 212 242.877 212.052C245.363 212.301 244.771 232.299 240.418 242.323C237.161 249.823 232.692 280.568 245.843 291.199C248.704 293.511 232.735 305.534 231.704 313.6C230.673 321.664 231.642 344.282 234.115 354.583C224.718 354.149 214.846 353.423 204.779 352.154C227.459 355.194 246.03 355.216 269.838 355.216C274.663 355.216 275.672 338.348 276.273 329.986C277.957 306.551 287.37 298.348 292.677 294.81C298.48 290.941 303.293 281.758 301.362 272.615C299.119 261.988 299.261 254.009 297.395 243.276C295.863 234.469 301.683 230.276 296.376 221.627C290.494 212.042 266.159 207.115 258.678 206.895C258.28 206.885 257.872 206.879 257.456 206.879Z" fill="url(#paint18_linear)"/>
<path d="M204.777 314.177C203.622 329.748 202.964 346.562 204.779 352.155C202.977 346.586 203.628 329.788 204.777 314.177Z" fill="#EBECFF"/>
<path d="M241.37 211.974C230.732 211.974 227.949 224.071 222.39 231.268C221.228 232.773 220.872 234.182 220.064 236.282C218.229 241.06 217.178 242.312 215.651 248.36C212.401 261.229 210.983 263.885 207.722 283.847C207.429 285.639 205.878 299.344 204.777 314.177C203.628 329.788 202.977 346.586 204.779 352.155C214.845 353.424 224.718 354.149 234.115 354.584C231.641 344.282 230.672 321.665 231.704 313.601C232.734 305.535 248.704 293.512 245.843 291.2C232.692 280.568 237.161 249.824 240.418 242.324C244.771 232.3 245.363 212.303 242.877 212.053C242.357 212 241.856 211.974 241.37 211.974Z" fill="url(#paint19_linear)"/>
<path d="M299.585 137.665C300.947 141.182 301.914 144.926 302.083 148.353C302.39 154.56 301.053 160.745 300.966 166.949C300.919 171.27 301.446 175.582 300.858 179.853C300.027 185.907 296.835 191.638 291.99 195.369C290.824 196.265 289.544 197.054 288.205 197.679C286.213 198.651 284.079 199.292 281.892 199.616C279.501 199.969 277.044 199.939 274.691 199.443C272.295 198.939 270.015 198.017 267.924 196.774C265.431 195.309 263.14 193.439 261.153 191.337C257.449 187.485 254.617 182.906 251.899 178.303C249.882 174.854 247.916 171.371 245.994 167.872C243.013 162.388 241.806 154.772 242.375 147.948C242.46 146.952 242.587 145.963 242.729 145.021C242.862 144.252 243.009 143.531 243.178 142.813C243.226 142.536 243.291 142.283 243.361 142.01C243.869 140.098 244.685 138.306 245.643 136.581C250.179 128.424 258.386 122.42 267.522 120.554C274.166 119.198 281.402 120.075 287.613 122.725C291.419 124.349 294.404 127.527 296.465 131.115C297.601 133.091 298.68 135.328 299.585 137.665Z" fill="url(#paint20_linear)"/>
<path opacity="0.24" d="M288.205 197.679C286.213 198.651 284.079 199.292 281.892 199.616C279.501 199.969 277.044 199.939 274.691 199.443C272.295 198.939 270.015 198.017 267.924 196.774C265.431 195.309 263.14 193.439 261.153 191.337C257.449 187.485 254.617 182.906 251.899 178.303C249.882 174.854 247.916 171.371 245.994 167.872C243.013 162.388 241.806 154.772 242.375 147.948C242.46 146.952 242.587 145.963 242.729 145.021L253.911 157.334C255.85 157.934 256.979 159.911 257.75 161.802C259.778 166.836 260.525 172.284 261.874 177.551C263.221 182.839 265.31 188.146 269.359 191.794C272.437 194.57 276.45 196.145 280.509 196.937C283.042 197.42 285.625 197.605 288.205 197.679Z" fill="#C65D56"/>
<path d="M238.383 154.703C238.383 154.703 239.952 121.845 241.831 122.126C243.711 122.407 285.046 114.56 285.046 114.56C284.181 123.558 291.72 160.007 255.079 158.588C238.493 157.946 256.508 188.31 256.508 188.31L238.383 154.703Z" fill="#231F20"/>
<path d="M235.628 264.148C232.675 277.944 230.178 291.127 231.484 305.279C247.467 320.355 267.747 327.741 286.996 341.944C290.401 348.306 287.62 354.617 279.666 351.208C254.283 340.327 227.335 332.985 209.169 311.28C207.9 305.791 206.727 304.968 205.728 298.507C204.091 287.921 205.193 275.079 207.837 263.407C210.172 253.099 213.718 241.547 216.401 231.094C224.239 241.545 229.449 252.669 235.628 264.148Z" fill="url(#paint21_linear)"/>
<path d="M235.462 295.765C227.583 296.301 219.67 297.041 211.836 297.388C209.116 297.509 206.642 297.579 203.964 297.49C202.925 287.527 204.564 276.473 206.016 266.926C207.468 257.378 208.772 246.57 212.256 238.615C219.505 222.064 226.623 213.309 243.617 208.008C246.187 207.206 252.651 206.809 254.641 206.809C250.515 222.468 241.281 237.718 239.504 254.157C238.094 267.189 234.479 282.16 235.462 295.765Z" fill="url(#paint22_linear)"/>
<path d="M316.433 346.577C314.806 348.504 312.009 347.897 310.047 347.313C306.087 346.133 302.762 345.089 298.745 344.696C298.473 344.669 298.179 344.69 297.881 344.78C297.583 344.869 297.639 344.794 297.227 345.022C296.815 345.249 296.2 345.928 296.316 346.599C298.805 346.974 301.137 347.248 303.665 347.905C304.22 348.049 305.391 348.221 305.386 349.217C305.381 350.212 304.475 350.602 303.366 350.645C299.589 350.792 297.013 350.867 292.675 351.606C291.36 351.83 286.777 353.292 284.669 352.564C284.412 352.476 283.83 352.524 283.548 352.462C278.473 351.36 276.928 347.639 278.607 343.072C280.286 338.506 283.572 336.726 287.648 334.619C291.724 332.513 296.373 331.169 300.915 330.187C302 329.953 303.16 329.875 304.229 330.227C305.297 330.58 306.106 331.333 306.914 332.088C309.158 334.186 311.399 336.446 313.518 338.625C314.667 339.807 315.843 340.877 316.551 342.308C317.26 343.738 317.481 345.336 316.433 346.577Z" fill="url(#paint23_linear)"/>
<path d="M305.385 349.218C305.381 350.212 304.473 350.606 303.365 350.646C299.591 350.783 297.006 350.886 292.676 351.6C291.363 351.817 286.689 353.395 284.621 352.55C284.369 352.446 283.535 352.632 283.677 351.771C284.063 349.405 293.239 344.669 297.26 345.103C296.652 345.222 296.315 345.92 296.305 346.601C298.813 346.972 301.13 347.25 303.663 347.906C304.221 348.05 305.389 348.224 305.385 349.218Z" fill="url(#paint24_linear)"/>
<path d="M437.279 293.759L406.661 362.379C405.071 365.956 401.523 368.237 397.606 368.197L275.526 366.927C273.88 366.91 272.501 365.783 272.099 364.272C271.987 363.969 271.944 363.621 271.948 363.273C271.969 361.256 273.609 359.651 275.602 359.672L337.373 360.315L367.706 292.27C369.176 288.994 372.444 286.895 376.037 286.933L433.288 287.529C435.049 287.547 436.477 288.558 437.18 289.934C437.77 291.052 437.872 292.443 437.279 293.759Z" fill="url(#paint25_linear)"/>
</g>
<defs>
<linearGradient id="paint0_linear" x1="318.923" y1="183.601" x2="118.437" y2="457.684" gradientUnits="userSpaceOnUse">
<stop offset="0.0045" stop-color="#F1F1FF"/>
<stop offset="1" stop-color="#E3E4FF"/>
</linearGradient>
<radialGradient id="paint1_radial" cx="0" cy="0" r="1" gradientUnits="userSpaceOnUse" gradientTransform="translate(367.533 554.631) scale(34.7541 6.64847)">
<stop stop-color="#B2B7FF"/>
<stop offset="0.9036" stop-color="white"/>
</radialGradient>
<radialGradient id="paint2_radial" cx="0" cy="0" r="1" gradientUnits="userSpaceOnUse" gradientTransform="translate(401.272 537.903) scale(146.251 9.38329)">
<stop stop-color="#B2B7FF"/>
<stop offset="0.9036" stop-color="white"/>
</radialGradient>
<linearGradient id="paint3_linear" x1="407.75" y1="389.215" x2="167.038" y2="530.523" gradientUnits="userSpaceOnUse">
<stop offset="0.013" stop-color="#F1F1FF"/>
<stop offset="1" stop-color="#C0C4FF"/>
</linearGradient>
<linearGradient id="paint4_linear" x1="486.867" y1="145.125" x2="491.056" y2="161.015" gradientUnits="userSpaceOnUse">
<stop offset="0.0051" stop-color="#E9E9F7"/>
<stop offset="0.9989" stop-color="#C7CAFF"/>
</linearGradient>
<radialGradient id="paint5_radial" cx="0" cy="0" r="1" gradientUnits="userSpaceOnUse" gradientTransform="translate(428.096 12.6548) rotate(-14.7672) scale(82.9951)">
<stop stop-color="#8805C8"/>
<stop offset="0.6641" stop-color="#5906EF"/>
<stop offset="1" stop-color="#4707FF"/>
</radialGradient>
<linearGradient id="paint6_linear" x1="462.255" y1="51.7504" x2="472.281" y2="89.7853" gradientUnits="userSpaceOnUse">
<stop offset="0.0051" stop-color="#E9E9F7"/>
<stop offset="0.9989" stop-color="#C7CAFF"/>
</linearGradient>
<linearGradient id="paint7_linear" x1="483.814" y1="133.541" x2="487.853" y2="148.862" gradientUnits="userSpaceOnUse">
<stop offset="0.0051" stop-color="#E9E9F7"/>
<stop offset="0.9989" stop-color="#C7CAFF"/>
</linearGradient>
<linearGradient id="paint8_linear" x1="475.655" y1="102.586" x2="484.436" y2="135.9" gradientUnits="userSpaceOnUse">
<stop offset="0.0051" stop-color="#E9E9F7"/>
<stop offset="0.9989" stop-color="#C7CAFF"/>
</linearGradient>
<linearGradient id="paint9_linear" x1="464" y1="124.277" x2="499.936" y2="114.804" gradientUnits="userSpaceOnUse">
<stop stop-color="#FF0068"/>
<stop offset="0.5117" stop-color="#9E04B6"/>
<stop offset="1" stop-color="#7306DA"/>
</linearGradient>
<linearGradient id="paint10_linear" x1="303.625" y1="561.574" x2="404.661" y2="531.318" gradientUnits="userSpaceOnUse">
<stop offset="0.0017" stop-color="#DE7C7C"/>
<stop offset="0.9938" stop-color="#F4B4A0"/>
</linearGradient>
<linearGradient id="paint11_linear" x1="416.804" y1="551.967" x2="251.521" y2="488.255" gradientUnits="userSpaceOnUse">
<stop stop-color="#FF0068"/>
<stop offset="1" stop-color="#9F04B7"/>
</linearGradient>
<linearGradient id="paint12_linear" x1="284.662" y1="569.107" x2="383.557" y2="532.449" gradientUnits="userSpaceOnUse">
<stop offset="0.0017" stop-color="#DE7C7C"/>
<stop offset="0.9938" stop-color="#F4B4A0"/>
</linearGradient>
<linearGradient id="paint13_linear" x1="396.996" y1="552.279" x2="227.974" y2="499.271" gradientUnits="userSpaceOnUse">
<stop stop-color="#FF0068"/>
<stop offset="1" stop-color="#9F04B7"/>
</linearGradient>
<linearGradient id="paint14_linear" x1="358.867" y1="347.168" x2="266.885" y2="264.883" gradientUnits="userSpaceOnUse">
<stop offset="0.0017" stop-color="#DE7C7C"/>
<stop offset="0.9938" stop-color="#F4B4A0"/>
</linearGradient>
<linearGradient id="paint15_linear" x1="359.585" y1="357.465" x2="241.754" y2="252.056" gradientUnits="userSpaceOnUse">
<stop offset="0.0017" stop-color="#DE7C7C"/>
<stop offset="0.1568" stop-color="#E18582"/>
<stop offset="0.5401" stop-color="#EA9A90"/>
<stop offset="0.9938" stop-color="#F4B4A0"/>
</linearGradient>
<linearGradient id="paint16_linear" x1="252.215" y1="250.619" x2="288.387" y2="258.189" gradientUnits="userSpaceOnUse">
<stop stop-color="#A2A7E8"/>
<stop offset="1" stop-color="#B2B7FF"/>
</linearGradient>
<linearGradient id="paint17_linear" x1="350.683" y1="367.564" x2="306.331" y2="280.438" gradientUnits="userSpaceOnUse">
<stop offset="0.2053" stop-color="#DE7C7C"/>
<stop offset="0.5401" stop-color="#EA9A90"/>
<stop offset="0.9938" stop-color="#F4B4A0"/>
</linearGradient>
<linearGradient id="paint18_linear" x1="229.576" y1="355.59" x2="252.958" y2="259.281" gradientUnits="userSpaceOnUse">
<stop stop-color="#A2A7E8"/>
<stop offset="1" stop-color="#B2B7FF"/>
</linearGradient>
<linearGradient id="paint19_linear" x1="209.153" y1="350.632" x2="232.536" y2="254.323" gradientUnits="userSpaceOnUse">
<stop stop-color="#959AE8"/>
<stop offset="1" stop-color="#A4AAFF"/>
</linearGradient>
<linearGradient id="paint20_linear" x1="245.389" y1="171.568" x2="292.222" y2="153.126" gradientUnits="userSpaceOnUse">
<stop offset="0.0017" stop-color="#DE7C7C"/>
<stop offset="0.9938" stop-color="#F4B4A0"/>
</linearGradient>
<linearGradient id="paint21_linear" x1="301.613" y1="443.013" x2="212.003" y2="248.018" gradientUnits="userSpaceOnUse">
<stop offset="0.0017" stop-color="#DE7C7C"/>
<stop offset="0.9938" stop-color="#F4B4A0"/>
</linearGradient>
<linearGradient id="paint22_linear" x1="208.998" y1="296.937" x2="244.002" y2="226.429" gradientUnits="userSpaceOnUse">
<stop stop-color="#A2A7E8"/>
<stop offset="1" stop-color="#B2B7FF"/>
</linearGradient>
<linearGradient id="paint23_linear" x1="332.679" y1="422.087" x2="249.029" y2="240.06" gradientUnits="userSpaceOnUse">
<stop offset="0.0017" stop-color="#DE7C7C"/>
<stop offset="0.1568" stop-color="#E18582"/>
<stop offset="0.5401" stop-color="#EA9A90"/>
<stop offset="0.9938" stop-color="#F4B4A0"/>
</linearGradient>
<linearGradient id="paint24_linear" x1="298.475" y1="363.072" x2="277.25" y2="295.548" gradientUnits="userSpaceOnUse">
<stop offset="0.2053" stop-color="#DE7C7C"/>
<stop offset="0.5401" stop-color="#EA9A90"/>
<stop offset="0.9938" stop-color="#F4B4A0"/>
</linearGradient>
<linearGradient id="paint25_linear" x1="271.948" y1="327.565" x2="437.676" y2="327.565" gradientUnits="userSpaceOnUse">
<stop stop-color="#FF0068"/>
<stop offset="1" stop-color="#9F04B7"/>
</linearGradient>
<clipPath id="clip0">
<rect width="629.565" height="561.181" fill="white"/>
</clipPath>
</defs>
</svg>
